<mxfile host="app.diagrams.net" modified="2022-09-29T07:30:15.721Z" agent="5.0 (X11; Linux x86_64) AppleWebKit/537.36 (KHTML, like Gecko) Chrome/105.0.0.0 Safari/537.36" etag="ZZvzl-X1wxufkhWuUys5" version="20.3.0" type="github">
  <diagram id="I0R46b78hN1vlnEYljZs" name="第 1 页">
    <mxGraphModel dx="607" dy="1273" grid="1" gridSize="10" guides="1" tooltips="1" connect="1" arrows="1" fold="1" page="1" pageScale="1" pageWidth="827" pageHeight="1169" math="0" shadow="0">
      <root>
        <mxCell id="0" />
        <mxCell id="1" parent="0" />
        <mxCell id="wHPtftZ2zYCcUfvrXZoR-7" style="edgeStyle=orthogonalEdgeStyle;rounded=0;orthogonalLoop=1;jettySize=auto;html=1;" edge="1" parent="1" source="wHPtftZ2zYCcUfvrXZoR-1" target="wHPtftZ2zYCcUfvrXZoR-2">
          <mxGeometry relative="1" as="geometry" />
        </mxCell>
        <mxCell id="wHPtftZ2zYCcUfvrXZoR-16" style="edgeStyle=orthogonalEdgeStyle;rounded=0;orthogonalLoop=1;jettySize=auto;html=1;entryX=0.567;entryY=0.979;entryDx=0;entryDy=0;entryPerimeter=0;startArrow=classic;startFill=1;fillColor=#f8cecc;strokeColor=#b85450;" edge="1" parent="1" source="wHPtftZ2zYCcUfvrXZoR-1" target="wHPtftZ2zYCcUfvrXZoR-14">
          <mxGeometry relative="1" as="geometry">
            <Array as="points">
              <mxPoint x="110" y="410" />
              <mxPoint x="621" y="410" />
            </Array>
          </mxGeometry>
        </mxCell>
        <mxCell id="wHPtftZ2zYCcUfvrXZoR-1" value="image1" style="rounded=1;whiteSpace=wrap;html=1;" vertex="1" parent="1">
          <mxGeometry x="60" y="310" width="90" height="40" as="geometry" />
        </mxCell>
        <mxCell id="wHPtftZ2zYCcUfvrXZoR-8" style="edgeStyle=orthogonalEdgeStyle;rounded=0;orthogonalLoop=1;jettySize=auto;html=1;" edge="1" parent="1" source="wHPtftZ2zYCcUfvrXZoR-2" target="wHPtftZ2zYCcUfvrXZoR-3">
          <mxGeometry relative="1" as="geometry" />
        </mxCell>
        <mxCell id="wHPtftZ2zYCcUfvrXZoR-9" style="edgeStyle=orthogonalEdgeStyle;rounded=0;orthogonalLoop=1;jettySize=auto;html=1;entryX=0;entryY=0.5;entryDx=0;entryDy=0;" edge="1" parent="1" source="wHPtftZ2zYCcUfvrXZoR-2" target="wHPtftZ2zYCcUfvrXZoR-4">
          <mxGeometry relative="1" as="geometry" />
        </mxCell>
        <mxCell id="wHPtftZ2zYCcUfvrXZoR-2" value="PSP E" style="shape=trapezoid;perimeter=trapezoidPerimeter;whiteSpace=wrap;html=1;fixedSize=1;rotation=90;" vertex="1" parent="1">
          <mxGeometry x="175" y="305" width="100" height="50" as="geometry" />
        </mxCell>
        <mxCell id="wHPtftZ2zYCcUfvrXZoR-12" style="edgeStyle=orthogonalEdgeStyle;rounded=0;orthogonalLoop=1;jettySize=auto;html=1;" edge="1" parent="1" source="wHPtftZ2zYCcUfvrXZoR-3" target="wHPtftZ2zYCcUfvrXZoR-5">
          <mxGeometry relative="1" as="geometry" />
        </mxCell>
        <mxCell id="wHPtftZ2zYCcUfvrXZoR-3" value="c_feature" style="rounded=1;whiteSpace=wrap;html=1;" vertex="1" parent="1">
          <mxGeometry x="300" y="270" width="90" height="40" as="geometry" />
        </mxCell>
        <mxCell id="wHPtftZ2zYCcUfvrXZoR-13" style="edgeStyle=orthogonalEdgeStyle;rounded=0;orthogonalLoop=1;jettySize=auto;html=1;entryX=0;entryY=0.5;entryDx=0;entryDy=0;" edge="1" parent="1" source="wHPtftZ2zYCcUfvrXZoR-4" target="wHPtftZ2zYCcUfvrXZoR-5">
          <mxGeometry relative="1" as="geometry" />
        </mxCell>
        <mxCell id="wHPtftZ2zYCcUfvrXZoR-4" value="w" style="rounded=1;whiteSpace=wrap;html=1;" vertex="1" parent="1">
          <mxGeometry x="300" y="340" width="90" height="40" as="geometry" />
        </mxCell>
        <mxCell id="wHPtftZ2zYCcUfvrXZoR-15" style="edgeStyle=orthogonalEdgeStyle;rounded=0;orthogonalLoop=1;jettySize=auto;html=1;entryX=0;entryY=0.5;entryDx=0;entryDy=0;" edge="1" parent="1" source="wHPtftZ2zYCcUfvrXZoR-5" target="wHPtftZ2zYCcUfvrXZoR-14">
          <mxGeometry relative="1" as="geometry" />
        </mxCell>
        <mxCell id="wHPtftZ2zYCcUfvrXZoR-5" value="nerf" style="rounded=1;whiteSpace=wrap;html=1;" vertex="1" parent="1">
          <mxGeometry x="440" y="305" width="90" height="40" as="geometry" />
        </mxCell>
        <mxCell id="wHPtftZ2zYCcUfvrXZoR-11" style="edgeStyle=orthogonalEdgeStyle;rounded=0;orthogonalLoop=1;jettySize=auto;html=1;exitX=0.5;exitY=1;exitDx=0;exitDy=0;" edge="1" parent="1" source="wHPtftZ2zYCcUfvrXZoR-10" target="wHPtftZ2zYCcUfvrXZoR-5">
          <mxGeometry relative="1" as="geometry" />
        </mxCell>
        <mxCell id="wHPtftZ2zYCcUfvrXZoR-10" value="pose" style="rounded=1;whiteSpace=wrap;html=1;" vertex="1" parent="1">
          <mxGeometry x="440" y="230" width="90" height="40" as="geometry" />
        </mxCell>
        <mxCell id="wHPtftZ2zYCcUfvrXZoR-14" value="gan_img" style="rounded=1;whiteSpace=wrap;html=1;" vertex="1" parent="1">
          <mxGeometry x="570" y="305" width="90" height="40" as="geometry" />
        </mxCell>
      </root>
    </mxGraphModel>
  </diagram>
</mxfile>
